PathFileType	4	(X/Y/Z)	24_coords_data.trc
DataRate	CameraRate	NumFrames	NumMarkers	Units	OrigDataRate	OrigDataStartFrame	OrigNumFrames
30.0	30.0	4	21	m	30.0	1	80
Frame#	Time	THUMB_TIP	THUMB_IP	THUMB_MCP	THUMB_CMC	INDEX_TIP	INDEX_DIP	INDEX_PIP	INDEX_MCP	MIDDLE_TIP	MIDDLE_DIP	MIDDLE_PIP	MIDDLE_MCP	RING_TIP	RING_DIP	RING_PIP	RING_MCP	PINKY_TIP	PINKY_DIP	PINKY_PIP	PINKY_MCP	WRIST
X1	Y1	Z1	X2	Y2	Z2	X3	Y3	Z3	X4	Y4	Z4	X5	Y5	Z5	X6	Y6	Z6	X7	Y7	Z7	X8	Y8	Z8	X9	Y9	Z9	X10	Y10	Z10	X11	Y11	Z11	X12	Y12	Z12	X13	Y13	Z13	X14	Y14	Z14	X15	Y15	Z15	X16	Y16	Z16	X17	Y17	Z17	X18	Y18	Z18	X19	Y19	Z19	X20	Y20	Z20	X21	Y21	Z21
0	0.0	0.008005209922790527	0.01059469985961914	0.8671010131835938	-0.006704100131988525	0.00672357988357544	0.8942310180664063	-0.020434099197387694	0.001512509942054748	0.9206539916992188	-0.04063740158081055	0.020725900650024415	0.9430339965820312	0.010954700469970702	0.024106399536132812	0.8273419799804688	-0.009467350006103516	0.017134599685668946	0.8380709838867187	-0.030561100006103514	0.010832500457763673	0.8515029907226562	-0.05723709869384765	0.004954899787902832	0.891197021484375	0.009395159721374512	0.048723098754882815	0.8272839965820312	-0.01452180004119873	0.04331800079345703	0.8355570068359375	-0.039062599182128906	0.03637269973754883	0.8483250122070313	-0.06215299987792969	0.030011299133300782	0.885114013671875	0.0043619399070739745	0.06717819976806641	0.8362789916992187	-0.017876699447631837	0.06224250030517578	0.8446849975585937	-0.04171500015258789	0.0572765007019043	0.857176025390625	-0.06505789947509766	0.047557701110839845	0.895447998046875	-0.010236100196838379	0.07522029876708984	0.8483259887695312	-0.026120399475097655	0.07411540222167969	0.863052001953125	-0.039739601135253905	0.07151069641113281	0.8757139892578125	-0.05992369842529297	0.06487139892578125	0.9032440185546875	-0.0714446029663086	0.029147499084472655	0.9737830200195312
1	0.03333333333333333	0.008573579788208007	0.009517450332641602	0.8680689697265624	-0.006782670021057129	0.006505300045013427	0.8935159912109375	-0.02263949966430664	0.002239180088043213	0.92225	-0.040191398620605466	0.018443700790405273	0.9459010009765625	0.010409600257873535	0.022702999114990234	0.826593017578125	-0.009010820388793946	0.01668000030517578	0.83872802734375	-0.029677099227905273	0.011249899864196777	0.851822021484375	-0.05516759872436523	0.0057677001953125	0.88660302734375	0.00814529037475586	0.049238899230957034	0.8267470092773438	-0.013122099876403809	0.04293349838256836	0.8354609985351562	-0.0392130012512207	0.03669820022583008	0.8485670166015625	-0.06399079895019531	0.02853700065612793	0.886427978515625	0.004221610069274902	0.06567150115966797	0.835989990234375	-0.016738800048828124	0.06176760101318359	0.8450679931640624	-0.041431800842285156	0.05669029998779297	0.85827197265625	-0.06396900177001953	0.04796030044555664	0.8928400268554687	-0.010466300010681152	0.07575859832763672	0.8497080078125	-0.025940700531005858	0.07393569946289062	0.8630269775390625	-0.04032490158081055	0.07086129760742188	0.876447998046875	-0.05780839920043945	0.06459359741210938	0.901323974609375	-0.07173829650878906	0.02870199966430664	0.9720349731445312
2	0.06666666666666667	0.008799449920654297	0.009206100463867188	0.867947998046875	-0.006755799770355225	0.00619189977645874	0.8935579833984375	-0.02247249984741211	0.002111520051956176	0.92247802734375	-0.039977401733398435	0.01833340072631836	0.9459530029296875	0.010332200050354004	0.02240220069885254	0.826468017578125	-0.009035719871520995	0.016405399322509766	0.8386389770507813	-0.029477500915527345	0.010962100028991699	0.8517449951171875	-0.05507509994506836	0.005508959770202637	0.8866380004882812	0.007985089778900147	0.04899909973144531	0.8266740112304688	-0.013304200172424317	0.04274509811401367	0.8355770263671874	-0.03916569900512695	0.036407100677490235	0.8485390014648437	-0.06382590103149414	0.02826919937133789	0.8863560180664063	0.003993979930877685	0.06543890380859375	0.8358569946289063	-0.01686090087890625	0.061589401245117185	0.8450819702148438	-0.0414995002746582	0.056490200042724606	0.858281982421875	-0.0639823989868164	0.04771260070800781	0.8928280029296874	-0.010741600036621094	0.07551399993896485	0.8494229736328125	-0.02595840072631836	0.07372899627685547	0.8629080200195313	-0.040279598236083985	0.07061119842529297	0.8762529907226563	-0.0577504997253418	0.0643863983154297	0.9012329711914062	-0.07154889678955079	0.0283518009185791	0.9718419799804687
3	0.1	0.008985139846801759	0.00912148952484131	0.86860302734375	-0.006396920204162598	0.00576757001876831	0.8937139892578125	-0.02233169937133789	0.001794209957122802	0.9224450073242187	-0.03986709976196289	0.018195100784301758	0.9458779907226562	0.010598600387573242	0.022243099212646486	0.8265960083007813	-0.008798660278320313	0.016217199325561524	0.8387230224609376	-0.02919779968261719	0.010793299674987792	0.8518099975585938	-0.05501110076904297	0.005359020233154297	0.8866799926757812	0.00812012004852295	0.048782600402832034	0.8267769775390625	-0.013180999755859376	0.042539600372314454	0.8353679809570312	-0.039102401733398434	0.036247001647949216	0.848458984375	-0.06375640106201172	0.02814970016479492	0.88652099609375	0.004220180034637451	0.06530549621582031	0.8358579711914063	-0.01677779960632324	0.061420101165771485	0.8450560302734375	-0.041380401611328124	0.056377399444580076	0.8582979736328125	-0.06382339859008788	0.04748030090332031	0.892948974609375	-0.01044159984588623	0.07534770202636719	0.8495059814453125	-0.02583650016784668	0.0735509033203125	0.8631270141601562	-0.04018600082397461	0.07045800018310547	0.8763259887695313	-0.05768040084838867	0.06417359924316406	0.9013140258789063	-0.07142500305175781	0.028208900451660156	0.9717260131835938
